<?xml version="1.0" standalone="no"?>
<!DOCTYPE svg PUBLIC "-//W3C//DTD SVG 20010904//EN"
 "http://www.w3.org/TR/2001/REC-SVG-20010904/DTD/svg10.dtd">
<svg version="1.0" xmlns="http://www.w3.org/2000/svg"
 width="500.000000pt" height="500.000000pt" viewBox="0 0 500.000000 500.000000"
 preserveAspectRatio="xMidYMid meet">

<g transform="translate(0.000000,500.000000) scale(0.100000,-0.100000)"
fill="#000000" stroke="none">
<path d="M0 2500 l0 -2500 2500 0 2500 0 0 2500 0 2500 -2500 0 -2500 0 0
-2500z m2348 495 c28 -9 54 -20 57 -25 4 -7 -16 -62 -30 -78 -1 -1 -15 4 -31
13 -40 21 -70 19 -95 -6 -27 -27 -16 -40 65 -80 73 -36 90 -51 107 -90 27 -66
-27 -147 -114 -170 -50 -13 -124 0 -175 31 l-33 21 22 37 c12 20 23 38 24 40
1 1 23 -7 49 -18 53 -24 104 -23 120 3 16 25 -1 45 -79 93 -81 49 -95 66 -95
112 0 48 27 89 75 112 48 24 66 25 133 5z m-459 -8 c19 -7 43 -24 54 -39 25
-33 27 -106 4 -141 -15 -23 -14 -25 6 -46 17 -17 22 -33 22 -75 0 -97 -50
-126 -212 -126 l-93 0 0 220 0 220 93 -1 c50 0 107 -5 126 -12z m753 -94 l3
-106 74 106 75 107 59 0 58 0 -22 -32 c-13 -18 -47 -66 -77 -105 -30 -40 -52
-78 -49 -85 3 -7 44 -59 91 -115 l87 -103 -69 0 -69 0 -79 110 -79 111 -3
-111 -3 -110 -49 0 -50 0 0 220 0 220 50 0 49 0 3 -107z m718 62 l0 -45 -50 0
-50 0 0 -175 0 -175 -50 0 -50 0 0 175 0 175 -50 0 -50 0 0 45 0 45 150 0 150
0 0 -45z m-1658 -475 c20 -6 46 -19 58 -28 22 -18 22 -19 5 -53 -30 -58 -33
-60 -67 -43 -36 19 -93 15 -93 -6 0 -8 34 -33 75 -55 84 -47 110 -80 110 -140
0 -93 -81 -152 -196 -142 -67 5 -154 42 -154 64 0 14 48 103 56 103 1 0 20
-11 40 -25 40 -27 95 -33 112 -12 16 18 5 30 -66 67 -91 48 -121 98 -103 167
24 89 117 132 223 103z m908 -11 c60 -27 88 -54 116 -114 45 -95 21 -224 -54
-287 -155 -130 -384 -26 -385 175 0 81 24 138 81 187 71 63 159 77 242 39z
m-405 -44 l0 -50 -52 -3 -53 -3 0 -175 0 -175 -62 3 -63 3 -3 173 -2 172 -50
0 -50 0 0 55 0 55 168 -2 167 -3 0 -50z m882 44 c94 -35 120 -164 48 -239
l-27 -28 51 -76 c75 -110 75 -106 -5 -106 l-69 0 -55 83 -55 82 -5 -80 -5 -80
-62 -3 -63 -3 0 231 0 230 109 0 c60 0 122 -5 138 -11z m488 -44 l0 -50 -77
-3 -78 -3 0 -29 0 -29 73 -3 72 -3 0 -55 0 -55 -72 -3 -73 -3 0 -29 0 -29 78
-3 77 -3 0 -50 0 -50 -137 -3 -138 -3 0 231 0 231 138 -3 137 -3 0 -50z"/>
<path d="M1770 2864 l0 -57 37 6 c41 7 53 20 53 59 0 30 -24 48 -64 48 -25 0
-26 -3 -26 -56z"/>
<path d="M1772 2693 l3 -58 35 3 c45 5 60 18 60 53 0 31 -15 42 -68 54 l-33 7
3 -59z"/>
<path d="M1559 2443 c-32 -20 -59 -63 -59 -95 0 -39 34 -82 91 -112 30 -16 62
-36 72 -44 39 -34 5 -92 -53 -92 -14 0 -44 9 -65 20 l-40 21 -18 -22 c-23 -29
-18 -40 28 -62 30 -15 56 -18 111 -15 84 4 117 26 134 87 16 57 -11 99 -91
141 -107 56 -117 72 -78 111 21 21 53 22 115 4 15 -5 23 0 32 20 11 24 10 27
-23 41 -46 19 -123 18 -156 -3z"/>
<path d="M2435 2446 c-157 -68 -166 -306 -15 -384 37 -19 57 -23 112 -20 57 3
73 8 105 34 127 102 111 293 -29 365 -44 22 -128 25 -173 5z m151 -72 c36 -24
54 -65 54 -124 0 -93 -42 -140 -123 -140 -42 0 -54 5 -82 33 -20 20 -36 48
-40 70 -11 57 3 107 40 144 28 28 40 33 79 33 27 0 58 -7 72 -16z"/>
<path d="M2474 2359 c-49 -25 -70 -119 -39 -178 29 -57 115 -65 155 -14 39 50
35 138 -9 177 -23 21 -79 29 -107 15z"/>
<path d="M1900 2431 c0 -28 2 -30 48 -33 l47 -3 3 -177 2 -178 35 0 35 0 0
168 c0 117 4 172 12 180 7 7 31 12 55 12 41 0 43 1 43 30 l0 30 -140 0 -140 0
0 -29z"/>
<path d="M2870 2250 l0 -210 35 0 34 0 3 83 c3 80 4 82 28 82 19 0 35 -15 73
-70 27 -38 52 -76 56 -83 5 -8 21 -12 44 -10 l37 3 -50 75 c-27 41 -50 80 -50
87 0 7 9 17 20 23 54 29 65 137 19 186 -30 32 -77 44 -171 44 l-78 0 0 -210z
m187 124 c37 -51 -6 -114 -78 -114 l-39 0 0 71 0 72 52 -5 c34 -4 56 -12 65
-24z"/>
<path d="M2970 2335 c0 -38 3 -45 19 -45 37 0 51 12 51 41 0 22 -6 32 -26 39
-40 16 -44 13 -44 -35z"/>
<path d="M3324 2447 c-2 -7 -3 -100 -2 -207 l3 -195 113 -3 112 -3 0 30 0 30
-72 3 -73 3 -3 58 -3 57 71 0 70 0 0 30 0 30 -70 0 -71 0 3 58 3 57 73 3 72 3
0 29 0 30 -110 0 c-81 0 -112 -3 -116 -13z"/>
</g>
</svg>
